<svg width="90" height="80" xmlns="http://www.w3.org/2000/svg"><g fill-rule="nonzero" fill="#000"><path d="M60.371 17.062c-.004-3.552-2.153-6.784-5.522-8.305C54.612 3.89 50.383 0 45.216 0c-5.166 0-9.396 3.89-9.633 8.757-3.37 1.52-5.519 4.753-5.522 8.305 0 3.795 2.43 7.06 5.886 8.46l8.032 15.739c.23.452.712.74 1.24.74s1.01-.288 1.24-.74l8.032-15.74c3.564-1.44 5.88-4.77 5.885-8.46h-.005zm-9.644 6.562H39.705c-3.797 0-6.888-2.945-6.888-6.562.003-2.13 1.089-4.125 2.913-5.355a7.184 7.184 0 0 1 6.27-.835c.465.156.981.065 1.355-.24s.55-.777.459-1.238a1.333 1.333 0 0 0-.896-.997 10.093 10.093 0 0 0-4.47-.444c.626-3.09 3.462-5.323 6.765-5.328 2.715.005 5.174 1.526 6.282 3.887 1.107 2.36.658 5.12-1.148 7.05-.35.347-.474.848-.322 1.306.151.459.554.801 1.049.894a1.416 1.416 0 0 0 1.326-.451 9.049 9.049 0 0 0 2.121-3.725c1.927 1.218 3.087 3.273 3.089 5.476 0 3.617-3.089 6.562-6.888 6.562h.005zM23.598 70.436l20.405 9.068v-31.33l-12.486-4.158zM45.959 48.174v31.33l20.402-9.068-7.918-26.42zM15.34 48.605a.992.992 0 0 0-.565.488L.103 78.43a.979.979 0 1 0 1.273 1.334l20.056-8.916 8.085-26.971-14.177 4.728zM89.75 78.216L75.2 49.096a.977.977 0 0 0-.565-.49l-14.191-4.729 8.08 26.967 20.063 8.92a.98.98 0 0 0 .397.084h.021c.541-.012.995-.432.995-.979a.97.97 0 0 0-.25-.653z"/></g></svg>