<?xml version="1.0" encoding="UTF-8"?>
<svg width="16px" height="16px" viewBox="0 0 16 16" version="1.1" xmlns="http://www.w3.org/2000/svg" xmlns:xlink="http://www.w3.org/1999/xlink">
    <title>noun-2026227</title>
    <g id="Page-1" stroke="none" stroke-width="1" fill="none" fill-rule="evenodd">
        <g id="noun-2026227" fill="#000000" fill-rule="nonzero">
            <path d="M6.43878788,10.3757576 L7.52484848,9.28969697 L6.71033333,8.47518182 L5.62427273,9.56124242 C3.79154545,9.05212121 1.07639394,11.3939697 0.0242727273,13.1588182 L2.84127273,15.9758182 C4.80966667,14.7879697 6.914,12.0727879 6.43884848,10.3758182 L6.43878788,10.3757576 Z" id="Path"></path>
            <path d="M8.47515152,6.71030303 L9.28966667,7.52481818 L13.8714848,2.943 C14.1090545,2.7054303 14.4823939,2.7054303 14.7199697,2.943 C14.9915121,3.1805697 15.398697,3.24839394 15.6702424,3.0448 C16.0435758,2.77325758 16.0775455,2.26413333 15.7720424,1.95873939 L14.0750727,0.261769697 C13.7696788,-0.0436242424 13.2265879,-0.00977272727 12.9890121,0.363569697 C12.7854121,0.668963636 12.8192667,1.07629697 13.0908121,1.31384242 C13.3283818,1.55141212 13.3283818,1.92475152 13.0908121,2.16232727 L8.47515152,6.71030303 Z" id="Path"></path>
            <path d="M10.3757576,9.56121212 L2.9430303,2.12848485 C2.70546061,1.89091515 2.70546061,1.51757576 2.9430303,1.28 C3.1806,1.0424303 3.24842424,0.601272727 3.0448303,0.329727273 C2.77328788,-0.0436060606 2.26416364,-0.0774848485 1.9587697,0.227927273 L0.2618,1.92489697 C-0.0435939394,2.23029091 -0.00974242424,2.73941212 0.3636,3.01095758 C0.668993939,3.21455758 1.07632727,3.1467303 1.31387273,2.90915758 C1.55141818,2.67158485 1.92478182,2.67158788 2.16235758,2.90915758 L9.56114545,10.3758242 C9.05202424,12.2085515 11.3938727,14.8897636 13.1587212,15.9758242 L15.9757212,13.1588242 C14.8218424,11.2242788 12.1066303,9.05215758 10.3757212,9.56124848 L10.3757576,9.56121212 Z" id="Path"></path>
        </g>
    </g>
</svg>