<?xml version="1.0" encoding="UTF-8"?>
<svg width="90px" height="80px" viewBox="0 0 90 80" version="1.1" xmlns="http://www.w3.org/2000/svg" xmlns:xlink="http://www.w3.org/1999/xlink">
    <!-- Generator: Sketch 43.2 (39069) - http://www.bohemiancoding.com/sketch -->
    <title>roadmap</title>
    <desc>Created with Sketch.</desc>
    <defs></defs>
    <g id="Page-1" stroke="none" stroke-width="1" fill="none" fill-rule="evenodd">
        <g id="roadmap" fill-rule="nonzero" fill="#000000">
            <path d="M60.3709536,17.0618035 C60.3667313,13.5103301 58.2177391,10.2781225 54.8491158,8.75664256 C54.6121507,3.89009121 50.3825992,0 45.216209,0 C40.0498188,0 35.8202674,3.89009121 35.5833023,8.75664256 C32.2137513,10.2771238 30.0643424,13.509958 30.0614644,17.0618035 C30.0614644,20.8573986 32.4917344,24.1227653 35.9470161,25.5218332 L43.9790308,41.2606908 C44.2092264,41.7134721 44.6908593,42.0010551 45.2189644,42.0010551 C45.7470695,42.0010551 46.2287024,41.7134721 46.4588981,41.2606908 L54.4909127,25.5218332 C58.055308,24.0803863 60.3717703,20.7506493 60.3764644,17.0618035 L60.3709536,17.0618035 Z M50.7270252,23.6240357 L39.7053928,23.6240357 C35.9084404,23.6240357 32.8168725,20.6789059 32.8168725,17.0618035 C32.8198888,14.9326133 33.9058194,12.936832 35.7304252,11.7071206 C37.555031,10.4774092 39.8920495,10.1662597 42.0006477,10.8723062 C42.4647982,11.0284472 42.9811331,10.9368352 43.355154,10.6319795 C43.7291748,10.3271238 43.9040591,9.85533924 43.8139294,9.39434251 C43.7237998,8.93334578 43.3823491,8.55317325 42.9181986,8.39703224 C41.4859123,7.91588928 39.9545669,7.7638924 38.4489267,7.95342535 C39.0741817,4.86371717 41.9104032,2.62957737 45.2134536,2.62489285 C47.9278381,2.62960142 50.3866866,4.15121632 51.4945641,6.51184697 C52.6024416,8.87247761 52.1531214,11.6327026 50.3467789,13.5628214 C49.9965505,13.9088674 49.8729246,14.4096207 50.0245317,14.8681009 C50.1761388,15.3265811 50.5787199,15.6694254 51.0739122,15.7617697 C51.5691046,15.8541141 52.0776712,15.6811822 52.3995579,15.311 C53.4107927,14.2347939 54.1327096,12.9564711 54.5212222,11.5862771 C56.4482434,12.803662 57.6077319,14.859083 57.6100347,17.0618035 C57.6100347,20.6789059 54.5212222,23.6240357 50.7215144,23.6240357 L50.7270252,23.6240357 Z" id="Shape"></path>
            <polygon id="Shape" points="23.598 70.436 44.003 79.504 44.003 48.174 31.517 44.016"></polygon>
            <polygon id="Shape" points="45.959 48.174 45.959 79.504 66.361 70.436 58.443 44.016"></polygon>
            <path d="M15.34,48.605 C15.096,48.685 14.893,48.865 14.775,49.093 L0.103,78.43 C-0.08,78.801 -0.015,79.244 0.272,79.546 C0.558,79.844 1.001,79.932 1.376,79.764 L21.432,70.848 L29.517,43.877 L15.34,48.605 Z" id="Shape"></path>
            <path d="M89.75,78.216 L75.2,49.096 C75.084,48.867 74.882,48.686 74.635,48.606 L60.444,43.877 L68.524,70.844 L88.587,79.764 C88.715,79.821 88.852,79.848 88.984,79.848 L89.005,79.848 C89.546,79.836 90,79.416 90,78.869 C90,78.617 89.906,78.389 89.75,78.216 Z" id="Shape"></path>
        </g>
    </g>
</svg>