<svg width="34" height="34" xmlns="http://www.w3.org/2000/svg"><g fill="none"><path d="M21.845 2.252C21.335.68 19.635-.17 18.063.34 16.49.85 15.64 2.55 16.15 4.122l7.735 23.843a3.019 3.019 0 0 0 3.655 1.87c1.573-.468 2.55-2.168 2.04-3.698 0-.085-7.735-23.884-7.735-23.884v-.001Z" fill="#E9A823"/><path d="M9.818 6.162C9.308 4.59 7.608 3.74 6.035 4.25c-1.572.51-2.423 2.21-1.913 3.783l7.736 23.842a3.019 3.019 0 0 0 3.654 1.87c1.573-.467 2.55-2.167 2.04-3.697 0-.085-7.734-23.885-7.734-23.885v-.001Z" fill="#3FB991"/><path d="M31.578 22.015c1.572-.51 2.422-2.21 1.912-3.782-.51-1.573-2.21-2.423-3.783-1.913L5.866 24.055a3.019 3.019 0 0 0-1.87 3.655c.468 1.572 2.167 2.55 3.697 2.04.085 0 23.886-7.735 23.886-7.735h-.001Z" fill="#E11765"/><path d="M10.838 28.73c1.572-.51 3.57-1.148 5.694-1.87-.51-1.572-1.147-3.57-1.87-5.695l-5.695 1.87 1.87 5.695h.001Z" fill="#472A49"/><path d="M22.865 24.82c2.168-.68 4.165-1.36 5.695-1.87-.51-1.572-1.147-3.57-1.87-5.695l-5.695 1.87 1.87 5.695Z" fill="#CD2027"/><path d="M27.668 9.988c1.572-.51 2.422-2.21 1.912-3.783-.51-1.572-2.21-2.422-3.782-1.912l-23.8 7.734a3.019 3.019 0 0 0-1.87 3.655c.467 1.573 2.167 2.55 3.697 2.04.042 0 23.843-7.735 23.843-7.735v.001Z" fill="#71CBDC"/><path d="M6.928 16.745c1.572-.51 3.57-1.148 5.695-1.87-.68-2.168-1.36-4.165-1.87-5.695L5.1 11.05l1.828 5.695Z" fill="#1D947E"/><path d="M18.955 12.835c2.168-.68 4.165-1.36 5.695-1.87-.68-2.168-1.36-4.165-1.87-5.695l-5.695 1.87 1.87 5.695Z" fill="#66873A"/></g></svg>