<svg width="12" height="16" viewBox="0 0 12 16" xmlns="http://www.w3.org/2000/svg"><title>location2</title><g fill-rule="nonzero" fill="#000"><path d="M10.285 10.9a16.57 16.57 0 01-.682.988l.108.052c.76.38 1.101.806 1.101 1.059 0 .253-.34.679-1.101 1.059-.957.479-2.31.753-3.712.753-1.402 0-2.754-.275-3.712-.753-.76-.38-1.101-.806-1.101-1.059 0-.253.34-.679 1.101-1.059l.108-.052c-.231-.31-.461-.64-.682-.988-1.061.541-1.715 1.282-1.715 2.1 0 1.657 2.686 3 6 3s6-1.343 6-3c0-.817-.654-1.558-1.715-2.1h.002z"/><path d="M10.998 5.688c-.001-1.184-.71-2.262-1.821-2.769C9.099 1.297 7.703 0 5.999 0S2.9 1.297 2.821 2.919C1.71 3.426 1.001 4.504 1 5.688c0 1.265.802 2.353 1.941 2.82l2.65 5.246c.076.151.235.247.409.247a.456.456 0 00.409-.247l2.65-5.246c1.175-.48 1.94-1.59 1.941-2.82h-.002zM7.817 7.875H4.18c-1.252 0-2.272-.982-2.272-2.187 0-.71.36-1.376.961-1.785a2.349 2.349 0 012.068-.279.468.468 0 00.447-.08.428.428 0 00.152-.412.443.443 0 00-.296-.333 3.296 3.296 0 00-1.474-.148C3.973 1.621 4.909.877 5.998.875c.896.002 1.707.509 2.072 1.296a2.126 2.126 0 01-.378 2.35.426.426 0 00-.107.435c.05.153.183.267.346.298a.464.464 0 00.438-.15c.333-.359.571-.785.7-1.242a2.173 2.173 0 011.018 1.826c0 1.205-1.018 2.187-2.272 2.187h.002z"/></g></svg>