<svg width="16" height="16" xmlns="http://www.w3.org/2000/svg"><path d="M6.439 10.376 7.525 9.29l-.815-.815-1.086 1.086c-1.832-.509-4.548 1.833-5.6 3.598l2.817 2.817c1.969-1.188 4.073-3.903 3.598-5.6ZM8.475 6.71l.815.815 4.581-4.582a.594.594 0 0 1 .849 0c.272.238.679.305.95.102a.711.711 0 0 0 .102-1.086L14.075.262c-.305-.306-.848-.272-1.086.102-.204.305-.17.712.102.95a.594.594 0 0 1 0 .848L8.475 6.71Z"/><path d="M10.376 9.561 2.943 2.128a.594.594 0 0 1 0-.848c.238-.238.305-.679.102-.95A.711.711 0 0 0 1.959.228L.262 1.925A.711.711 0 0 0 .364 3.01a.766.766 0 0 0 .95-.102.594.594 0 0 1 .848 0l7.4 7.467c-.51 1.833 1.832 4.514 3.597 5.6l2.817-2.817c-1.154-1.935-3.87-4.107-5.6-3.598Z"/></svg>