<?xml version="1.0" encoding="UTF-8"?>
<svg width="12px" height="16px" viewBox="0 0 12 16" version="1.1" xmlns="http://www.w3.org/2000/svg" xmlns:xlink="http://www.w3.org/1999/xlink">
    <!-- Generator: Sketch 43.2 (39069) - http://www.bohemiancoding.com/sketch -->
    <title>location2</title>
    <desc>Created with Sketch.</desc>
    <defs></defs>
    <g id="Page-1" stroke="none" stroke-width="1" fill="none" fill-rule="evenodd">
        <g id="location2" transform="translate(-1.000000, 0.000000)" fill-rule="nonzero" fill="#000000">
            <path d="M11.285,10.9 C11.063,11.248 10.834,11.578 10.603,11.888 C10.64,11.905 10.676,11.923 10.711,11.94 C11.471,12.32 11.812,12.746 11.812,12.999 C11.812,13.252 11.472,13.678 10.711,14.058 C9.754,14.537 8.401,14.811 6.999,14.811 C5.597,14.811 4.245,14.536 3.287,14.058 C2.527,13.678 2.186,13.252 2.186,12.999 C2.186,12.746 2.526,12.32 3.287,11.94 C3.323,11.922 3.359,11.905 3.395,11.888 C3.164,11.578 2.934,11.248 2.713,10.9 C1.652,11.441 0.998,12.182 0.998,13 C0.998,14.657 3.684,16 6.998,16 C10.312,16 12.998,14.657 12.998,13 C12.998,12.183 12.344,11.442 11.283,10.9 L11.285,10.9 Z" id="Shape"></path>
            <path d="M11.9981821,5.68755357 C11.9967894,4.50366961 11.2879019,3.42621295 10.1766951,2.9190275 C10.0985275,1.29676221 8.70332667,0 6.99909107,0 C5.29485548,0 3.89965461,1.29676221 3.821487,2.9190275 C2.70997422,3.42588003 2.00094938,4.50354558 2,5.68755357 C2,6.95281549 2.80167242,8.04132574 3.94146519,8.50770514 L6.59098346,13.7542546 C6.66691803,13.9051892 6.82579413,14.0010551 7,14.0010551 C7.17420587,14.0010551 7.33308197,13.9051892 7.40901654,13.7542546 L10.0585348,8.50770514 C11.2343208,8.0271987 11.9984516,6.91723058 12,5.68755357 L11.9981821,5.68755357 Z M8.81694237,7.87507418 L5.18123977,7.87507418 C3.92874023,7.87507418 2.90892565,6.89331493 2.90892565,5.68755357 C2.90992061,4.97778785 3.26813622,4.31249398 3.87001839,3.9025696 C4.47190057,3.49264521 5.24281217,3.38892349 5.93837484,3.62428414 C6.09148403,3.67633376 6.26180725,3.64579489 6.38518541,3.54417122 C6.50856356,3.44254754 6.56625257,3.28527812 6.53652153,3.13160482 C6.50679049,2.97793153 6.39415627,2.85120098 6.24104708,2.79915137 C5.76857921,2.63876232 5.26343477,2.58809415 4.76676968,2.65127497 C4.97302235,1.62132051 5.90860591,0.876569828 6.99818215,0.875008242 C7.89357534,0.876577842 8.70467496,1.38380829 9.07013019,2.17072471 C9.43558541,2.95764112 9.28736829,3.87776233 8.69151063,4.52116759 C8.57598089,4.63652205 8.53520044,4.80344821 8.58521104,4.95628261 C8.63522163,5.10911702 8.76802093,5.22340419 8.93136989,5.25418719 C9.09471886,5.28497019 9.26247955,5.22732334 9.36866024,5.10392308 C9.70223596,4.7451697 9.94037448,4.31904068 10.068533,3.86228638 C10.7041989,4.26810176 11.086679,4.9532765 11.0874386,5.68755357 C11.0874386,6.89331493 10.068533,7.87507418 8.81512452,7.87507418 L8.81694237,7.87507418 Z" id="Shape"></path>
        </g>
    </g>
</svg>